<svg xmlns="http://www.w3.org/2000/svg" viewBox="0 0 41.512 41.512">
  <defs>
    <style>
      .cls-1 {
        fill: #fff;
      }
    </style>
  </defs>
  <path id="Subtraction_1" data-name="Subtraction 1" class="cls-1" d="M23.756,35.511A20.739,20.739,0,0,1,3,14.755,20.761,20.761,0,0,1,42.88,6.677a20.779,20.779,0,0,1-11.046,27.2A20.626,20.626,0,0,1,23.756,35.511ZM9.248,5.416V23.845h8.3a13.441,13.441,0,0,0,2.591-.236,4.933,4.933,0,0,0,2.083-.915,5.15,5.15,0,0,0,1.322-1.457,5.364,5.364,0,0,0,.813-2.913,5.033,5.033,0,0,0-.711-2.744,4.066,4.066,0,0,0-2.135-1.626A4.389,4.389,0,0,0,22.9,12.9a4.09,4.09,0,0,0,.847-2.693,4.667,4.667,0,0,0-.847-2.83c-.921-1.258-2.528-1.919-4.776-1.965Zm23.071,4.3a6.383,6.383,0,0,0-4.726,1.83,7.222,7.222,0,0,0-1.813,5.285c0,2.429.678,4.207,2.016,5.284a7.184,7.184,0,0,0,4.624,1.626,6.432,6.432,0,0,0,4.981-1.93,4.323,4.323,0,0,0,1.287-2.406H35.165a2.55,2.55,0,0,1-.711.914,2.913,2.913,0,0,1-1.9.61,3.474,3.474,0,0,1-1.931-.509,3.121,3.121,0,0,1-1.355-2.777h9.588a16.678,16.678,0,0,0-.1-2.608,6.556,6.556,0,0,0-1.05-2.744,5.405,5.405,0,0,0-2.287-1.966A7.606,7.606,0,0,0,32.319,9.719Zm-3.76-3.558V8.025h7.453V6.161Zm-11.181,14.5h-3.9V15.75h3.965a4.4,4.4,0,0,1,1.829.305,1.979,1.979,0,0,1,1.186,1.964,2.345,2.345,0,0,1-1.219,2.306A4.116,4.116,0,0,1,17.378,20.663ZM35.3,15.377H29.338a3.732,3.732,0,0,1,.931-2.049,2.712,2.712,0,0,1,2.049-.761,3.054,3.054,0,0,1,2.05.711,2.921,2.921,0,0,1,.931,2.1ZM17.378,12.667h-3.9V8.6H16.9a6.844,6.844,0,0,1,2.2.3,1.646,1.646,0,0,1,.983,1.694,1.744,1.744,0,0,1-.745,1.61A3.757,3.757,0,0,1,17.378,12.667Z" transform="translate(-3 6)"/>
</svg>
