<svg xmlns="http://www.w3.org/2000/svg" viewBox="0 0 40.001 40">
  <defs>
    <style>
      .cls-1 {
        fill: #fff;
      }
    </style>
  </defs>
  <path id="Subtraction_4" data-name="Subtraction 4" class="cls-1" d="M23,34A19.983,19.983,0,0,1,3,14,20.005,20.005,0,0,1,41.429,6.215,20.022,20.022,0,0,1,30.785,32.429,19.875,19.875,0,0,1,23,34ZM22.924,1.77A12.447,12.447,0,0,0,10.436,14.258,12.445,12.445,0,0,0,22.924,26.745,12.3,12.3,0,0,0,29.2,25.074,12.429,12.429,0,0,0,33.74,20.53a12.3,12.3,0,0,0,1.671-6.272A12.316,12.316,0,0,0,33.755,8V7.971A12.572,12.572,0,0,0,29.2,3.442,12.3,12.3,0,0,0,22.924,1.77Zm0,22.918a10.156,10.156,0,0,1-6.373-2.2,14.1,14.1,0,0,1,3.458-4.258,10.607,10.607,0,0,1,4.658-2.515,38.25,38.25,0,0,1,1.943,8.258A10.112,10.112,0,0,1,22.924,24.688ZM28.553,23v0a37.43,37.43,0,0,0-1.714-7.6c1.192-.076,2.239-.114,3.115-.114.976,0,2.091.038,3.315.114a9.9,9.9,0,0,1-1.486,4.343A10.391,10.391,0,0,1,28.555,23ZM15.123,21.145h0a10.186,10.186,0,0,1-2.628-6.886A1.336,1.336,0,0,1,12.522,14v-.229H13.98A30.457,30.457,0,0,0,23.267,12.4c.23.441.472.955.743,1.571a12.78,12.78,0,0,0-5.086,2.686,14.172,14.172,0,0,0-3.8,4.485ZM26.21,13.658h0c-.314-.8-.6-1.478-.857-2.028a12.154,12.154,0,0,0,5.486-4.115A10.091,10.091,0,0,1,33.3,13.572c-1.007-.056-2.035-.085-3.057-.085-1.464,0-2.819.058-4.029.171ZM14.465,11.743c-.724,0-1.272-.019-1.628-.058a10.756,10.756,0,0,1,1.971-3.915,10.255,10.255,0,0,1,3.4-2.8,25.122,25.122,0,0,1,4.172,5.63A27.272,27.272,0,0,1,14.465,11.743Zm9.974-1.886h0A25.866,25.866,0,0,0,20.381,4.2a8.976,8.976,0,0,1,2.543-.372,10.226,10.226,0,0,1,6.658,2.4,12.424,12.424,0,0,1-5.143,3.628Z" transform="translate(-3 6)"/>
</svg>
