<svg xmlns="http://www.w3.org/2000/svg" viewBox="0 0 42.766 41.716">
  <defs>
    <style>
      .cls-1 {
        fill: #fcfcfc;
        fill-rule: evenodd;
      }
    </style>
  </defs>
  <g id="logo__github--icon" transform="translate(-328 34)">
    <path id="Path_334" data-name="Path 334" class="cls-1" d="M21.383,0a21.387,21.387,0,0,0-6.76,41.676c1.063.2,1.457-.459,1.457-1.037,0-.512-.013-1.851-.026-3.636-5.946,1.286-7.206-2.862-7.206-2.862A5.721,5.721,0,0,0,6.471,31c-1.943-1.326.144-1.3.144-1.3A4.544,4.544,0,0,1,9.9,31.91c1.9,3.268,5,2.323,6.222,1.772a4.647,4.647,0,0,1,1.352-2.862c-4.739-.525-9.727-2.363-9.727-10.554A8.217,8.217,0,0,1,9.95,14.531a7.691,7.691,0,0,1,.2-5.657s1.8-.578,5.881,2.192a20.225,20.225,0,0,1,10.711,0c4.082-2.77,5.881-2.192,5.881-2.192a7.643,7.643,0,0,1,.21,5.657,8.266,8.266,0,0,1,2.192,5.736c0,8.217-5,10.015-9.766,10.554a5.131,5.131,0,0,1,1.457,3.964c0,2.862-.026,5.159-.026,5.867,0,.578.381,1.234,1.47,1.024A21.39,21.39,0,0,0,21.383,0Z" transform="translate(328 -34)"/>
  </g>
</svg>
