<svg xmlns="http://www.w3.org/2000/svg" viewBox="0 0 40.001 40">
  <defs>
    <style>
      .cls-1 {
        fill: #fff;
      }
    </style>
  </defs>
  <path id="Subtraction_3" data-name="Subtraction 3" class="cls-1" d="M23,34A19.983,19.983,0,0,1,3,14,20.005,20.005,0,0,1,41.429,6.215,20.022,20.022,0,0,1,30.785,32.429,19.875,19.875,0,0,1,23,34ZM11,21.506h0a14.44,14.44,0,0,0,7.5,2.118,13.315,13.315,0,0,0,13.414-14,.124.124,0,0,1,0-.026c0-.01,0-.019,0-.029s0-.021,0-.031,0-.032,0-.047V9.472a8.258,8.258,0,0,0,2.323-2.453,8.423,8.423,0,0,1-2.658.754,5.116,5.116,0,0,0,2-2.6A7.751,7.751,0,0,1,30.58,6.23a4.793,4.793,0,0,0-8.257,3.312,4.828,4.828,0,0,0,.122,1.07,13.163,13.163,0,0,1-5.4-1.367,12.687,12.687,0,0,1-4.48-3.606,4.7,4.7,0,0,0-.437,3.727,4.655,4.655,0,0,0,1.89,2.605c-.088.006-.166.008-.239.008a2.865,2.865,0,0,1-1.854-.551,4.752,4.752,0,0,0,.739,2.667,4.939,4.939,0,0,0,2.958,2.017,2.491,2.491,0,0,1-1.15.214,5.918,5.918,0,0,1-.845-.063,3.542,3.542,0,0,0,1.39,2.154,4.645,4.645,0,0,0,2.894,1.1A8.354,8.354,0,0,1,12.269,21.6,8.143,8.143,0,0,1,11,21.506Z" transform="translate(-3 6)"/>
</svg>
