<svg xmlns="http://www.w3.org/2000/svg" viewBox="0 0 40 40">
  <defs>
    <style>
      .cls-1 {
        fill: #fff;
      }
    </style>
  </defs>
  <path id="Subtraction_2" data-name="Subtraction 2" class="cls-1" d="M23,34A19.983,19.983,0,0,1,3,14,20.005,20.005,0,0,1,41.429,6.215,20.022,20.022,0,0,1,30.785,32.429,19.875,19.875,0,0,1,23,34ZM18.728,3A6.736,6.736,0,0,0,12,9.728v9.129a6.736,6.736,0,0,0,6.728,6.729h9.129a6.737,6.737,0,0,0,6.729-6.729V9.728A6.736,6.736,0,0,0,27.857,3Zm9.129,20.314H18.728a4.461,4.461,0,0,1-4.456-4.457V9.728a4.461,4.461,0,0,1,4.456-4.456h9.129a4.461,4.461,0,0,1,4.457,4.456v9.129A4.462,4.462,0,0,1,27.857,23.314ZM23.293,8.451a5.841,5.841,0,1,0,5.841,5.842A5.849,5.849,0,0,0,23.293,8.451ZM29.146,7.1a1.4,1.4,0,1,0,1.4,1.4A1.4,1.4,0,0,0,29.146,7.1ZM23.293,17.862a3.569,3.569,0,1,1,3.569-3.569A3.573,3.573,0,0,1,23.293,17.862Z" transform="translate(-3 6)"/>
</svg>
