<svg xmlns="http://www.w3.org/2000/svg" viewBox="0 0 972.009 273.208">
  <defs>
    <style>
      .cls-1 {
        fill: #fcfcfc;
      }
    </style>
  </defs>
  <g id="logo__full--display" transform="translate(-234 -301.136)">
    <path id="Path_4" data-name="Path 4" class="cls-1" d="M453.664,77.59a77.861,77.861,0,0,1-77.977,77.78c-42.927,0-77.583-35.05-77.386-78.174a77.682,77.682,0,0,1,155.363.394ZM376.08,139.617c33.869.2,61.633-27.371,62.224-60.846.591-34.656-27.371-62.618-60.846-63.406C342.605,14.578,314.25,42.933,314.053,77,313.856,111.458,342.015,139.814,376.08,139.617Z" transform="translate(523.284 301.142)"/>
    <path id="Path_5" data-name="Path 5" class="cls-1" d="M381.194,4.6h13.587V67.612c0,9.255.2,18.707,1.772,27.961a67.577,67.577,0,0,0,4.726,16.344c4.923,10.83,13.39,17.525,25.008,19.691a63.841,63.841,0,0,0,27.961-.591c12.6-3.347,20.282-12.012,24.417-24.023A81.681,81.681,0,0,0,482.8,82.38c.394-25.2.394-50.409.394-75.417V4.8h13.981V6.569c0,27.371.394,54.741-.2,82.112-.2,16.541-5.317,31.7-17.525,43.517-7.68,7.68-17.131,12.208-27.765,14.375-12.405,2.363-24.614,1.772-36.429-3.151-15.753-6.7-25.6-18.51-30.915-34.656A68.674,68.674,0,0,1,380.8,86.909V6.963A5,5,0,0,0,381.194,4.6Z" transform="translate(603.236 305.607)"/>
    <path id="Path_6" data-name="Path 6" class="cls-1" d="M19.5,140.844H6.5V3.4H61.438C81.72,3.4,96.686,14.624,102,34.118c4.135,15.556,1.969,30.127-7.876,43.124a38.1,38.1,0,0,1-9.452,8.27c13,18.51,25.992,36.822,39.185,55.332H107.713c-14.178-20.676-28.355-41.351-42.73-62.421A41.921,41.921,0,0,0,70.3,77.045C82.508,73.5,89.6,64.836,90.975,52.431a37.682,37.682,0,0,0-2.954-20.282c-3.544-7.483-9.649-11.618-17.525-13.39a66.14,66.14,0,0,0-13.981-1.575c-12.012-.2-23.826,0-35.838,0H19.5Q19.5,79.211,19.5,140.844Z" transform="translate(240.496 304.444)"/>
    <path id="Path_7" data-name="Path 7" class="cls-1" d="M260.175,77.26v62.421H245.8V46.936c27.371,21.463,54.741,42.73,82.309,64.193V4.6h14.571V140.469C315.113,119.4,287.742,98.527,260.175,77.26Z" transform="translate(472.406 305.607)"/>
    <path id="Path_8" data-name="Path 8" class="cls-1" d="M250.065,140.069H235.1V4.2c27.765,21.857,55.135,43.714,82.9,65.768V4.988c4.726-.2,9.255-.394,13.981-.591V98.521c-27.371-21.463-54.545-42.73-81.915-64.193Q250.065,87.2,250.065,140.069Z" transform="translate(462.036 305.219)"/>
    <path id="Path_9" data-name="Path 9" class="cls-1" d="M248.292,145.367c1.969,2.166,4.135,4.332,6.1,6.5,4.726,5.12,9.452,10.436,14.178,15.753,4.135,4.529,8.861,7.483,15.753,6.1a14.538,14.538,0,0,1,.394,2.363c-.591,3.544-1.181,7.089-1.969,11.224a11.287,11.287,0,0,1-2.757.788c-7.876.788-14.375-2.363-19.691-7.483-4.529-4.332-8.467-8.861-12.6-13.587-5.71-6.3-11.224-12.8-16.737-19.1-1.575-1.772-3.544-1.575-5.71-1.378v40.367c-.394.394-.788.591-.985.985H210.485l-.985-.985V86.688a4.3,4.3,0,0,1,.985-.788h25.8c4.529,0,9.058.2,13.39.591a39.729,39.729,0,0,1,16.344,5.12,23.6,23.6,0,0,1,11.421,16.147c1.378,7.089.985,13.981-2.166,20.479-3.741,8.073-10.633,12.8-18.9,15.359C253.805,144.186,251.048,144.777,248.292,145.367Zm-22.842-12.8c5.12,0,10.239.2,15.162,0a39.527,39.527,0,0,0,8.27-.985c7.286-1.772,12.6-5.514,13.784-13.587.984-7.286-1.575-13.587-9.058-16.737a29.508,29.508,0,0,0-10.83-2.166c-5.317-.2-10.633,0-15.753,0a3.351,3.351,0,0,0-1.378.2C225.45,110.317,225.45,121.344,225.45,132.568Z" transform="translate(437.227 384.396)"/>
    <path id="Path_10" data-name="Path 10" class="cls-1" d="M118.7,24.3h15.359c16.737,34.066,33.475,68.131,50.409,102.591C200.812,92.431,217.156,58.366,233.3,24.3h16.934q-32.786,67.934-65.965,136.066Q151.486,92.136,118.7,24.3Z" transform="translate(349.231 324.698)"/>
    <path id="Path_11" data-name="Path 11" class="cls-1" d="M391.524,4.7h14.768V75.191c0,6.695,0,13.39,1.575,19.888a39.495,39.495,0,0,0,3.151,8.467,15.283,15.283,0,0,0,9.846,7.876,27.183,27.183,0,0,0,15.359.2c7.483-1.969,11.224-7.286,13.193-14.375a59.935,59.935,0,0,0,1.969-16.737c0-24.614.2-49.228.2-73.842V4.5h14.571V66.527c0,9.452-.2,18.9-1.772,28.158a51.556,51.556,0,0,1-5.12,16.147,26.157,26.157,0,0,1-17.919,13.587,57.162,57.162,0,0,1-23.826.2c-10.633-2.166-17.525-8.664-21.07-18.51a69.05,69.05,0,0,1-4.135-21.07c-1.378-26.583-.394-53.166-.591-79.946C391.327,5.288,391.524,5.091,391.524,4.7Z" transform="translate(613.581 305.51)"/>
    <path id="Path_12" data-name="Path 12" class="cls-1" d="M84.85,140.266H68.9Q101.686,72.331,134.865,4.2q32.786,68.23,65.178,136.066h-15.95c-16.344-35.05-32.687-70.1-49.228-105.545C117.931,69.968,101.39,105.019,84.85,140.266Z" transform="translate(300.969 305.219)"/>
    <path id="Path_13" data-name="Path 13" class="cls-1" d="M320.7,163.865c-2.56,7.286-5.12,14.768-7.68,22.054a10.609,10.609,0,0,1-1.378,2.56H297.072c-.591,0-.985-.394-1.772-.788,1.378-3.938,2.757-7.483,4.135-11.224q16.541-43.714,33.278-87.429a20.765,20.765,0,0,1,1.378-2.166c5.514-.591,10.633-1.181,16.147-1.772a25.117,25.117,0,0,1,1.378,2.363c7.68,20.479,15.556,40.958,23.236,61.436,4.726,12.6,9.452,25.008,14.178,37.61a12.559,12.559,0,0,1,.394,1.378c-.591.2-1.181.788-1.772.788H373.277a25.118,25.118,0,0,1-1.378-2.363c-2.56-6.892-4.923-13.784-7.286-20.676-.2-.591-.394-.985-.591-1.575C349.451,163.865,335.076,163.865,320.7,163.865Zm38.4-13.784c-5.71-16.344-11.421-32.49-16.934-48.243-5.513,15.753-11.224,31.9-16.934,48.243Z" transform="translate(520.377 383.621)"/>
    <path id="Path_14" data-name="Path 14" class="cls-1" d="M188.4,139.681V4.6h81.915V18.975H201.79c-.2,36.429-.394,72.463-.591,108.892h69.51v12.012C243.338,139.681,215.968,139.681,188.4,139.681Z" transform="translate(416.778 305.607)"/>
    <path id="Path_15" data-name="Path 15" class="cls-1" d="M532.463,17.665c-2.166,3.741-4.135,7.286-6.1,10.83a93.96,93.96,0,0,0-8.467-4.923c-7.286-3.741-14.768-6.695-22.842-7.68-13.39-1.575-25.6,4.332-32.293,16.147-6.892,12.209-3.741,26.78,8.073,35.641,6.5,4.923,13.587,8.073,21.266,10.83a177.9,177.9,0,0,1,16.935,6.695c4.923,2.166,8.861,5.71,9.649,11.224,1.772,11.618-1.772,26.386-19.3,29.734-12.012,2.363-23.629.2-34.656-4.529a143.762,143.762,0,0,1-13.193-7.089c2.757-4.332,5.317-8.073,7.876-12.209a19.68,19.68,0,0,0,2.757,1.575c7.68,4.332,15.753,8.073,24.614,9.452a23.373,23.373,0,0,0,11.618-.788,11.424,11.424,0,0,0,7.286-8.27c.985-3.544-.591-6.892-4.332-9.452a47.381,47.381,0,0,0-13.39-5.71c-8.467-2.363-16.934-5.317-24.417-10.042-6.892-4.529-12.405-10.042-15.556-17.722a36.407,36.407,0,0,1-2.166-15.162c.394-7.483,1.772-14.768,5.317-21.463,6.1-11.815,15.753-18.9,28.749-21.463,17.328-3.544,32.884.985,47.259,10.633C528.919,14.909,530.494,16.287,532.463,17.665Z" transform="translate(666.206 303.175)"/>
    <path id="Path_16" data-name="Path 16" class="cls-1" d="M512.548,127.248c-1.182,4.332-2.166,8.073-3.348,11.815a6.554,6.554,0,0,1-1.181,1.969H473.953v32.49H517.47a9.267,9.267,0,0,1,.591,1.772c-.591,3.938-1.181,7.68-1.772,11.815a6.979,6.979,0,0,1-2.166.591H458.988c-.2-.2-.394-.591-.788-.788V86.488a4.3,4.3,0,0,1,.985-.788h57.7a4.292,4.292,0,0,0,.984.788.687.687,0,0,0,.2.394V98.105a6.26,6.26,0,0,1-.591,1.772H474.15v26.977h36.232A10.16,10.16,0,0,1,512.548,127.248Z" transform="translate(678.246 384.202)"/>
    <path id="Path_17" data-name="Path 17" class="cls-1" d="M273.15,173.619h43.517c.2.788.591,1.378.394,1.969-.394,3.544-.985,6.892-1.575,10.436A5.586,5.586,0,0,1,314.3,187.8H259.563a10.384,10.384,0,0,1-2.363-.591V88.16c0-.788.394-1.772.394-2.56h58.483a4.3,4.3,0,0,1,.788.985V98.793c-.2.394-.591.591-.985.985H272.756v26.78h37.61a4.118,4.118,0,0,1,.788,1.181c-1.181,4.135-2.363,8.073-3.348,12.209-.394.394-.788.591-1.181.985H272.953C273.15,151.959,273.15,162.592,273.15,173.619Z" transform="translate(483.453 384.105)"/>
    <path id="Path_18" data-name="Path 18" class="cls-1" d="M228.244,163.076c2.166-.591,13.193,3.347,13.981,5.12a31.356,31.356,0,0,1-15.95,17.722c-9.058,4.726-18.9,5.71-28.946,5.317-6.892-.394-13.39-1.575-19.691-4.726-10.83-5.317-17.131-13.784-18.9-25.8a61.936,61.936,0,0,1-.591-8.664c0-10.239-.2-20.479,0-30.718.2-8.27,2.363-15.95,7.68-22.645a35.31,35.31,0,0,1,20.085-12.209c11.815-2.954,23.629-2.757,35.247,1.575a33.6,33.6,0,0,1,18.707,16.934,11.464,11.464,0,0,1,.985,2.166,13.885,13.885,0,0,1-1.772,1.378c-3.347,1.378-6.695,2.757-10.043,3.938-1.181.394-2.166.394-2.757-.788-4.529-7.483-11.421-11.224-19.691-12.405a32.654,32.654,0,0,0-17.328,1.772c-9.452,3.741-14.571,10.83-14.768,20.873-.394,10.633-.2,21.266,0,31.9.2,11.618,6.695,19.494,17.919,22.251,8.664,1.969,17.131,1.575,25.2-2.363A26.326,26.326,0,0,0,228.244,163.076Z" transform="translate(387.371 383.031)"/>
    <path id="Path_19" data-name="Path 19" class="cls-1" d="M443.4,120.267c2.166-3.544,4.529-6.892,6.7-10.436a4.119,4.119,0,0,1,1.182.788,74.829,74.829,0,0,0,32.49,12.6c8.861,1.181,17.722.985,26.189-2.56,10.633-4.529,16.344-12.8,17.722-23.826a35.164,35.164,0,0,0-.2-12.012c-1.181-6.892-5.514-11.421-11.224-14.768-5.317-3.151-11.027-5.12-16.737-7.089-7.483-2.56-14.965-5.514-21.463-10.042-6.1-4.135-9.649-9.846-9.649-17.328,0-9.255,4.923-15.556,12.6-19.888,6.3-3.544,13.193-3.741,20.282-1.969a73.556,73.556,0,0,1,22.645,10.239,5.221,5.221,0,0,1,1.181.985c-2.166,3.741-4.135,7.483-6.3,11.421a37.865,37.865,0,0,0-3.347-2.56c-4.923-3.741-10.239-6.892-16.344-8.073-7.089-1.378-13.784,1.772-16.344,7.68-2.166,5.12-.985,10.239,3.938,13a63.016,63.016,0,0,0,11.815,5.12c7.876,2.757,15.753,4.923,23.039,8.861,6.7,3.544,12.405,8.27,16.147,14.965,3.938,6.892,4.923,14.375,4.135,22.054-1.575,14.375-8.664,25.6-20.479,33.672a42.356,42.356,0,0,1-20.479,6.892c-20.282,1.575-38.4-4.135-55.135-15.556A21.6,21.6,0,0,0,443.4,120.267Z" transform="translate(663.903 313.403)"/>
    <path id="Path_20" data-name="Path 20" class="cls-1" d="M403.2,88.169c.394-.394.591-.788.985-1.181.591-.2,1.182-.2,1.969-.394,3.938-.591,7.68-.985,11.618-1.575a2.089,2.089,0,0,1,2.56,1.772l18.9,54.348c3.544,10.239,7.089,20.676,10.83,30.915,9.649-28.355,20.085-56.711,30.127-85.066,5.71-.788,10.83-1.378,15.95-1.969a10.608,10.608,0,0,1,1.969.591c-3.347,8.861-6.695,17.525-9.846,26.189-3.347,8.664-6.5,17.328-9.845,26.189-3.348,8.664-6.5,17.328-9.846,25.992s-6.3,17.328-9.846,25.8c-4.135-.591-7.68-.985-11.421-1.575a21.694,21.694,0,0,0-3.544-.394c-1.969,0-2.954-.985-3.741-2.757-4.332-11.618-8.664-23.039-13-34.46-7.68-20.282-15.359-40.564-23.039-61.043A3.384,3.384,0,0,1,403.2,88.169Z" transform="translate(624.944 383.506)"/>
    <path id="Path_21" data-name="Path 21" class="cls-1" d="M278.727,86.3c1.575,3.347,3.151,6.5,4.726,10.042H13.487a7.9,7.9,0,0,1-2.954-.591C7.186,94.373,3.641,92.995-.1,91.42c3.741-1.575,7.089-2.954,10.436-4.332a11.15,11.15,0,0,1,3.544-.591H276.364A10.406,10.406,0,0,1,278.727,86.3Z" transform="translate(234.1 384.784)"/>
    <path id="Path_22" data-name="Path 22" class="cls-1" d="M369.515,99.878H339.388l-.788-.788V86.685c.2-.394.591-.591.788-.985h78.174c.2.394.591.591.788,1.181-1.575,4.332-1.969,9.058-4.135,13.193H385.268v87.035c-.394.2-.591.591-.984.788H370.5l-.984-.985Z" transform="translate(562.339 384.202)"/>
    <path id="Path_23" data-name="Path 23" class="cls-1" d="M123.43,60.39c-9.058,19.1-17.722,38-26.583,56.907H80.7q21.266-44.6,42.73-89.4,20.971,44.9,41.745,89.4h-15.95C140.758,98.394,132.094,79.491,123.43,60.39Z" transform="translate(312.405 328.187)"/>
    <path id="Path_24" data-name="Path 24" class="cls-1" d="M130.4,24.3h17.131c8.467,18.9,16.934,37.61,25.6,56.907,8.664-19.1,17.131-38,25.6-56.907h15.753C200.7,53.246,187.111,81.8,173.13,110.941,158.755,82,144.578,53.246,130.4,24.3Z" transform="translate(360.57 324.698)"/>
    <path id="Path_25" data-name="Path 25" class="cls-1" d="M30.187,103.63H16.6V41.8H47.121C61.1,62.082,75.28,82.758,89.457,103.433H73.9c-10.83-15.95-22.054-32.1-33.081-48.44H30.187Z" transform="translate(250.284 341.658)"/>
    <path id="Path_26" data-name="Path 26" class="cls-1" d="M214.056,73.663h46.865v13.39H198.5V39.4h53.56V52.2h-38Z" transform="translate(426.566 339.332)"/>
    <path id="Path_27" data-name="Path 27" class="cls-1" d="M198.7,55.67V15.5h61.633V29.481H213.665v13.39h38v13C234.144,55.67,216.422,55.67,198.7,55.67Z" transform="translate(426.76 316.17)"/>
    <path id="Path_28" data-name="Path 28" class="cls-1" d="M16.6,62.143V13.9H47.712a32.619,32.619,0,0,1,12.209,2.166c8.27,3.151,12.405,9.255,13.39,17.722a30.378,30.378,0,0,1-.788,12.6c-2.363,8.467-8.27,13.193-16.737,14.965a45.237,45.237,0,0,1-8.861.985c-9.452.2-18.9,0-28.552,0A5.452,5.452,0,0,0,16.6,62.143ZM28.021,50.722a.61.61,0,0,0,.394.2c7.876,0,15.95.2,23.826,0A9.872,9.872,0,0,0,61.5,43.437a30.571,30.571,0,0,0,.788-4.135c.2-3.544,0-6.892-1.969-9.846-2.363-3.741-6.1-4.726-10.239-4.726H29.4a3.351,3.351,0,0,0-1.378.2C28.021,33.2,28.021,41.861,28.021,50.722Z" transform="translate(250.284 314.62)"/>
    <path id="Path_29" data-name="Path 29" class="cls-1" d="M387.191,87.069a11.332,11.332,0,0,1,1.969-.394c3.938-.591,8.073-1.181,12.209-1.575.394.2.591.591.985.985V187.691l-.788.788H387.388a4.294,4.294,0,0,1-.788-.985V89.629A15.545,15.545,0,0,0,387.191,87.069Z" transform="translate(608.857 383.621)"/>
    <path id="Path_30" data-name="Path 30" class="cls-1" d="M138.691,105.671c-1.378.985-2.56,1.772-3.741,2.757-.591-.591-.985-1.181-1.378-1.575-1.772-1.969-3.938-3.151-6.5-2.757a5.635,5.635,0,0,0-5.514,5.514v4.135a10.99,10.99,0,0,1,6.5-1.969c6.892,0,10.83,3.938,11.027,10.633a20.782,20.782,0,0,1-.394,4.923,9.174,9.174,0,0,1-6.5,7.089,16.23,16.23,0,0,1-8.664.2,9.333,9.333,0,0,1-7.286-9.452c0-5.317-.2-10.436,0-15.753a10.068,10.068,0,0,1,6.3-9.255c5.514-2.363,11.815-.985,15.162,3.741C138.1,104.489,138.3,105.08,138.691,105.671ZM121.56,118.076c0,2.363-.2,4.529,0,6.7q.3,4.726,5.317,5.317c3.151.394,5.907-.788,6.5-3.544a15.917,15.917,0,0,0,0-6.1,4.406,4.406,0,0,0-3.741-3.347A12.7,12.7,0,0,0,121.56,118.076Z" transform="translate(346.765 397.116)"/>
    <path id="Path_31" data-name="Path 31" class="cls-1" d="M88.243,117.037c0-2.757-.2-5.317,0-8.073.2-5.317,2.954-8.27,8.073-9.452a13.905,13.905,0,0,1,10.436,1.378,7.844,7.844,0,0,1,4.332,7.089c.2,5.907.2,12.012,0,17.919-.2,5.12-4.332,8.861-9.846,9.255a20.782,20.782,0,0,1-4.923-.394c-4.923-.985-7.68-4.332-7.876-9.255a60.807,60.807,0,0,1-.2-8.467Zm5.317,0v7.483c0,3.544,2.166,5.514,5.907,5.71,3.347.2,6.1-1.772,6.3-5.12.2-5.317.2-10.436,0-15.753-.2-3.741-2.757-5.514-6.695-5.317-3.347.2-5.317,2.363-5.317,5.907C93.56,112.312,93.56,114.675,93.56,117.037Z" transform="translate(319.63 397.17)"/>
    <path id="Path_32" data-name="Path 32" class="cls-1" d="M40.591,134.36H20.9V99.9H40.985v4.726H26.217v9.058H39.41c-.591,1.772-.985,3.347-1.378,4.923H26.217v10.83H41.182C40.985,131.209,40.788,132.784,40.591,134.36Z" transform="translate(254.451 397.964)"/>
    <path id="Path_33" data-name="Path 33" class="cls-1" d="M57.442,102.46q-1.477,2.068-2.363,3.544c-2.56-.591-4.529-1.181-6.892-1.575a12.118,12.118,0,0,0-3.741.394,4.516,4.516,0,0,0-2.954,3.544,3.834,3.834,0,0,0,1.969,4.135c1.575.788,3.347,1.575,4.923,2.363a32.761,32.761,0,0,1,5.317,2.56,9.661,9.661,0,0,1-.2,15.95c-5.12,3.347-14.178,2.757-18.9-1.378.788-1.181,1.575-2.363,2.56-3.741a6.994,6.994,0,0,1,1.772.788,13.147,13.147,0,0,0,9.452,1.378,4.834,4.834,0,0,0,3.741-3.938,4.38,4.38,0,0,0-2.56-4.923c-1.575-.788-3.347-1.378-4.923-2.166a26.3,26.3,0,0,1-3.544-1.378c-3.347-1.575-5.514-4.135-5.514-8.073a9.543,9.543,0,0,1,5.317-8.861C46.218,98.128,54.685,99.7,57.442,102.46Z" transform="translate(267.728 397.569)"/>
    <path id="Path_34" data-name="Path 34" class="cls-1" d="M81.243,129.567H96.8c-.394,1.772-.788,3.151-1.181,4.726H75.139c-.985-1.772-1.378-3.741,0-5.514a33.743,33.743,0,0,1,4.332-4.923c2.363-2.363,5.12-4.529,7.286-7.089A25.26,25.26,0,0,0,90.1,110.86a4.677,4.677,0,0,0-1.772-5.514,5.4,5.4,0,0,0-5.907-.591c-1.575.788-2.757,2.166-4.529,3.544-.788-.591-2.166-1.378-3.348-2.363.2-.591.2-1.181.591-1.575,3.544-5.514,12.012-6.892,17.131-2.954,4.135,3.151,4.923,8.861,1.969,13.981a34.837,34.837,0,0,1-7.876,9.058c-1.772,1.575-3.544,3.151-5.12,4.726C81.243,129.173,81.243,129.37,81.243,129.567Z" transform="translate(306.151 397.243)"/>
    <path id="Path_35" data-name="Path 35" class="cls-1" d="M64.95,134.36H59.436V104.823H49V99.9H75.977L74.8,104.626H64.753C64.95,114.668,64.95,124.514,64.95,134.36Z" transform="translate(281.684 397.964)"/>
    <path id="Path_36" data-name="Path 36" class="cls-1" d="M110.67,129.591v-25.4h-5.907c-.394-1.575-.788-2.757-1.181-4.529,4.135-.591,8.073-.2,12.209-.2v29.931h8.861c-.591,1.772-.985,3.348-1.378,4.726H102.4v-4.529Z" transform="translate(333.434 397.416)"/>
    <path id="Path_37" data-name="Path 37" class="cls-1" d="M63.1,120.6v-6.5h6.5v6.5Z" transform="translate(295.348 411.725)"/>
    <path id="Path_38" data-name="Path 38" class="cls-1" d="M310,66.347a54.844,54.844,0,1,1,109.68.985c-.394,29.537-25.008,53.954-54.938,53.954A55.045,55.045,0,0,1,310,66.347Zm94.124.394a39.484,39.484,0,1,0-39.382,39.382C386.4,106.32,404.124,88.4,404.124,66.74Z" transform="translate(534.623 312.385)"/>
  </g>
</svg>
